<svg preserveAspectRatio="xMidYMid meet" data-bbox="-0.01 7.02 11006.669 2280.41" viewBox="-0.01 7.02 11006.669 2280.41" height="86.72" width="416.319" xmlns="http://www.w3.org/2000/svg" shape-rendering="geometricPrecision" text-rendering="geometricPrecision" image-rendering="optimizeQuality" fill-rule="evenodd" clip-rule="evenodd" data-type="color" role="presentation" aria-hidden="true" aria-label="">
    <g>
        <path d="M188.04 1903.3h26.7v293.45h-26.7zm392.37 0h26.32v293.45h-28.25l-167.55-248.53v248.53h-26.71V1903.3h28.25l167.94 248.53zm311.11-2.52c25.8 0 49.47 6.65 71.01 19.94 21.55 13.3 38.64 31.28 51.27 53.95 12.65 22.67 18.96 47.58 18.96 74.73 0 27.14-6.31 52.19-18.96 75.14-12.63 22.95-29.72 41.14-51.27 54.58-21.54 13.43-45.21 20.15-71.01 20.15-25.79 0-49.46-6.72-71-20.15-21.55-13.44-38.64-31.63-51.28-54.58s-18.96-48-18.96-75.14q0-40.725 18.96-74.73c12.64-22.67 29.73-40.65 51.28-53.95 21.54-13.29 45.21-19.94 71-19.94m.39 26.03c-20.64 0-39.73 5.46-57.27 16.37-17.54 10.92-31.47 25.75-41.8 44.5-10.31 18.76-15.47 39.33-15.47 61.72s5.16 43.1 15.47 62.13c10.33 19.03 24.26 34.07 41.8 45.13 17.54 11.05 36.63 16.58 57.27 16.58 20.38 0 39.27-5.53 56.69-16.58 17.42-11.06 31.28-26.1 41.6-45.13q15.48-28.545 15.48-62.13c0-22.39-5.16-42.96-15.48-61.72-10.32-18.75-24.18-33.58-41.6-44.5-17.42-10.91-36.31-16.37-56.69-16.37m240.68-23.51h28.63l96.36 261.54 95.97-261.54h28.25l-111.06 293.45h-27.87zM1696 2196.75l-32.12-78.08h-150.14l-31.74 78.08h-28.63l121.9-293.45h27.86l121.9 293.45zm-171.82-104.11h129.25l-65.01-158.69zM1962.22 2219c10.32 1.12 18.12 4.76 23.41 10.91 5.29 6.16 7.94 13.3 7.94 21.42 0 10.63-3.68 19.31-11.04 26.02-7.34 6.72-16.96 10.08-28.82 10.08-5.42 0-11.1-.84-17.03-2.52q-8.895-2.52-15.87-6.72l6.2-18.05c3.35 1.96 7.22 3.57 11.6 4.83q6.585 1.89 12.39 1.89c6.7 0 11.93-1.82 15.67-5.46s5.61-7.84 5.61-12.59q0-6.72-5.61-11.55c-3.74-3.22-8.84-4.83-15.28-4.83h-11.62l9.29-33.58c-23.73-1.96-45.34-9.87-64.82-23.72-19.47-13.85-34.88-31.84-46.24-53.95-11.35-22.11-17.03-46.03-17.03-71.78 0-27.15 6.33-52.06 18.96-74.73 12.65-22.67 29.74-40.65 51.28-53.95 21.55-13.29 45.09-19.94 70.62-19.94 18.32 0 36 3.71 53.02 11.13 17.03 7.42 31.99 17.7 44.88 30.85l-15.86 20.16c-10.83-11.48-23.35-20.43-37.54-26.87-14.18-6.44-28.88-9.66-44.11-9.66-20.9 0-40.05 5.46-57.47 16.37-17.41 10.92-31.21 25.82-41.4 44.71-10.19 18.9-15.29 39.54-15.29 61.93s5.1 42.96 15.29 61.71 23.99 33.65 41.4 44.71c17.42 11.05 36.57 16.58 57.47 16.58 14.97 0 29.54-3.15 43.73-9.44 14.18-6.3 26.83-15.05 37.92-26.24l16.25 18.89c-12.64 12.59-26.95 22.74-42.95 30.43-16 7.7-32.38 11.97-49.15 12.81zm441.52-22.25-32.12-78.08h-150.14l-31.74 78.08h-28.63L2283 1903.3h27.87l121.9 293.45zm-171.82-104.11h129.25l-65.01-158.69zm121.9-262.8c0 13.15-2.51 23.93-7.54 32.32-5.04 8.4-12.59 12.6-22.64 12.6-5.42 0-10.26-1.19-14.51-3.57q-6.39-3.57-14.91-9.87c-5.15-3.92-9.09-6.65-11.8-8.18-2.71-1.54-5.61-2.31-8.71-2.31-4.89 0-8.57 1.96-11.02 5.87-2.45 3.92-3.68 9.38-3.68 16.38h-18.96c0-13.16 2.52-23.93 7.55-32.33 5.02-8.4 12.57-12.59 22.64-12.59q8.115 0 14.7 3.57c4.39 2.37 9.28 5.8 14.7 10.28 5.16 3.92 9.1 6.65 11.81 8.19q4.05 2.31 8.7 2.31c9.81 0 14.7-7.56 14.7-22.67zm316.14 70.94c25.8 0 49.47 6.65 71.01 19.94 21.54 13.3 38.63 31.28 51.27 53.95 12.65 22.67 18.96 47.58 18.96 74.73 0 27.14-6.31 52.19-18.96 75.14-12.64 22.95-29.73 41.14-51.27 54.58-21.54 13.43-45.21 20.15-71.01 20.15-25.79 0-49.47-6.72-71.01-20.15-21.54-13.44-38.63-31.63-51.28-54.58-12.63-22.95-18.96-48-18.96-75.14 0-27.15 6.33-52.06 18.96-74.73 12.65-22.67 29.74-40.65 51.28-53.95 21.54-13.29 45.22-19.94 71.01-19.94m.38 26.03c-20.63 0-39.72 5.46-57.27 16.37-17.54 10.92-31.47 25.75-41.79 44.5-10.31 18.76-15.48 39.33-15.48 61.72s5.17 43.1 15.48 62.13c10.32 19.03 24.25 34.07 41.79 45.13 17.55 11.05 36.64 16.58 57.27 16.58 20.38 0 39.28-5.53 56.69-16.58 17.42-11.06 31.29-26.1 41.6-45.13 10.33-19.03 15.49-39.74 15.49-62.13s-5.16-42.96-15.49-61.72c-10.31-18.75-24.18-33.58-41.6-44.5-17.41-10.91-36.31-16.37-56.69-16.37m592.45 269.94-32.12-78.08h-150.15l-31.73 78.08h-28.63l121.89-293.45h27.87l121.89 293.45zm-171.82-104.11h129.25l-65.01-158.69zm586.25-141.48c-11.1-7.56-23.22-13.36-36.39-17.42q-19.725-6.09-37.14-6.09c-18.58 0-33.47 3.99-44.7 11.97-11.22 7.97-16.83 18.82-16.83 32.53 0 12.04 3.1 21.83 9.29 29.39 6.19 7.55 13.8 13.5 22.83 17.84s21.42 9.17 37.15 14.48c18.32 5.88 33.08 11.69 44.31 17.43 11.22 5.73 20.77 14.06 28.63 24.97 7.87 10.92 11.81 25.33 11.81 43.24 0 15.68-4.07 29.53-12.2 41.57-8.12 12.03-19.54 21.34-34.24 27.91-14.7 6.58-31.61 9.87-50.7 9.87q-28.245 0-55.14-12.18c-17.93-8.11-33.34-18.89-46.24-32.32l12.38-23.93c12.13 12.87 26.18 22.95 42.18 30.23 16 7.27 31.73 10.91 47.21 10.91 20.64 0 37.03-4.55 49.15-13.64 12.12-9.1 18.18-21.34 18.18-36.74 0-12.31-3.09-22.39-9.28-30.22-6.19-7.84-13.81-13.86-22.83-18.05-9.03-4.2-21.67-9.1-37.93-14.7-18.32-6.15-33.02-11.96-44.11-17.42-11.1-5.46-20.51-13.57-28.25-24.35-7.74-10.77-11.61-24.84-11.61-42.19 0-14.83 3.87-27.85 11.61-39.04 7.74-11.2 18.57-19.8 32.5-25.82 13.94-6.02 30.06-9.03 48.38-9.03q22.05 0 44.31 7.14c14.83 4.76 27.93 11.06 39.27 18.89zm169.47-47.86h181.1v26.03h-154.4v104.95h138.15v26.03h-138.15v110.41h159.43v26.03h-186.13zm514.26 293.45-58.43-95.72c-8.26.56-14.57.84-18.96.84h-74.29v94.88h-26.71V1903.3h101c33.79 0 59.92 8.47 78.36 25.4 18.45 16.93 27.67 40.93 27.67 72 0 24.35-5.42 44.64-16.25 60.87-10.84 16.23-26.31 27.57-46.44 34.01l65.02 101.17zm-77.39-120.91c25.8 0 45.67-6.36 59.59-19.1 13.93-12.73 20.9-31.13 20.9-55.2 0-23.51-6.97-41.42-20.9-53.74-13.92-12.31-33.79-18.47-59.59-18.47h-74.29v146.51zm219.78-172.54h28.63l96.36 261.54 95.97-261.54h28.25l-111.06 293.45h-27.87zm378.82 0h26.71v293.45h-26.71zm311.11 315.7c10.32 1.12 18.12 4.76 23.41 10.91 5.29 6.16 7.94 13.3 7.94 21.42 0 10.63-3.68 19.31-11.03 26.02q-11.025 10.08-28.83 10.08c-5.42 0-11.1-.84-17.02-2.52-5.94-1.68-11.23-3.92-15.88-6.72l6.2-18.05c3.35 1.96 7.23 3.57 11.6 4.83q6.585 1.89 12.39 1.89c6.7 0 11.93-1.82 15.67-5.46s5.62-7.84 5.62-12.59c0-4.48-1.88-8.33-5.62-11.55s-8.84-4.83-15.28-4.83h-11.62l9.3-33.58c-23.74-1.96-45.35-9.87-64.82-23.72-19.48-13.85-34.89-31.84-46.25-53.95-11.35-22.11-17.02-46.03-17.02-71.78q0-40.725 18.96-74.73c12.64-22.67 29.73-40.65 51.28-53.95 21.54-13.29 45.08-19.94 70.61-19.94 18.32 0 36 3.71 53.02 11.13 17.03 7.42 31.99 17.7 44.88 30.85l-15.86 20.16c-10.83-11.48-23.35-20.43-37.53-26.87-14.19-6.44-28.89-9.66-44.12-9.66-20.9 0-40.05 5.46-57.46 16.37-17.42 10.92-31.21 25.82-41.41 44.71-10.19 18.9-15.28 39.54-15.28 61.93s5.09 42.96 15.28 61.71c10.2 18.75 23.99 33.65 41.41 44.71 17.41 11.05 36.56 16.58 57.46 16.58 14.97 0 29.54-3.15 43.73-9.44 14.19-6.3 26.83-15.05 37.92-26.24l16.25 18.89c-12.64 12.59-26.95 22.74-42.94 30.43-16.01 7.7-32.39 11.97-49.15 12.81zm348.64-318.22c25.8 0 49.47 6.65 71.02 19.94 21.54 13.3 38.63 31.28 51.27 53.95q18.96 34.005 18.96 74.73c0 27.14-6.32 52.19-18.96 75.14s-29.73 41.14-51.27 54.58c-21.55 13.43-45.22 20.15-71.02 20.15-25.79 0-49.46-6.72-71-20.15-21.54-13.44-38.63-31.63-51.28-54.58-12.64-22.95-18.96-48-18.96-75.14q0-40.725 18.96-74.73c12.65-22.67 29.74-40.65 51.28-53.95 21.54-13.29 45.21-19.94 71-19.94m.39 26.03c-20.64 0-39.73 5.46-57.27 16.37-17.54 10.92-31.47 25.75-41.79 44.5-10.32 18.76-15.48 39.33-15.48 61.72q0 33.585 15.48 62.13c10.32 19.03 24.25 34.07 41.79 45.13 17.54 11.05 36.63 16.58 57.27 16.58 20.38 0 39.28-5.53 56.69-16.58 17.42-11.06 31.28-26.1 41.6-45.13s15.49-39.74 15.49-62.13-5.17-42.96-15.49-61.72c-10.32-18.75-24.18-33.58-41.6-44.5-17.41-10.91-36.31-16.37-56.69-16.37m499.19-23.51c25.79 0 49.33 6.44 70.61 19.31 21.29 12.88 38.06 30.58 50.32 53.11 12.25 22.53 18.38 47.37 18.38 74.52 0 27.14-6.13 51.91-18.38 74.3-12.26 22.39-29.1 40.02-50.51 52.9-21.41 12.87-45.15 19.31-71.2 19.31h-107.96V1903.3zm.77 267.42c20.38 0 39.09-5.32 56.11-15.95 17.03-10.64 30.5-25.12 40.44-43.45 9.93-18.33 14.89-38.69 14.89-61.08s-5.03-42.82-15.08-61.3c-10.07-18.47-23.68-33.02-40.83-43.66-17.15-10.63-36.05-15.95-56.69-15.95h-81.65v241.39zm477.11 26.03-32.11-78.08h-150.15l-31.74 78.08h-28.63l121.9-293.45h27.86l121.9 293.45zm-171.82-104.11h129.26l-65.02-158.69zm586.25-141.48c-11.1-7.56-23.22-13.36-36.38-17.42-13.15-4.06-25.53-6.09-37.15-6.09-18.57 0-33.47 3.99-44.69 11.97-11.22 7.97-16.84 18.82-16.84 32.53 0 12.04 3.1 21.83 9.3 29.39 6.18 7.55 13.8 13.5 22.83 17.84 9.02 4.34 21.41 9.17 37.15 14.48q27.465 8.82 44.31 17.43c11.21 5.73 20.76 14.06 28.63 24.97 7.87 10.92 11.8 25.33 11.8 43.24 0 15.68-4.06 29.53-12.19 41.57-8.12 12.03-19.54 21.34-34.25 27.91-14.7 6.58-31.6 9.87-50.69 9.87q-28.245 0-55.14-12.18c-17.93-8.11-33.34-18.89-46.25-32.32l12.39-23.93c12.12 12.87 26.18 22.95 42.18 30.23 15.99 7.27 31.73 10.91 47.2 10.91 20.64 0 37.03-4.55 49.15-13.64 12.12-9.1 18.19-21.34 18.19-36.74 0-12.31-3.1-22.39-9.28-30.22-6.2-7.84-13.81-13.86-22.83-18.05-9.04-4.2-21.68-9.1-37.94-14.7-18.31-6.15-33.01-11.96-44.1-17.42-11.1-5.46-20.51-13.57-28.25-24.35-7.75-10.77-11.61-24.84-11.61-42.19 0-14.83 3.86-27.85 11.61-39.04 7.74-11.2 18.57-19.8 32.5-25.82s30.06-9.03 48.37-9.03c14.7 0 29.48 2.38 44.31 7.14s27.93 11.06 39.28 18.89zm368.38 245.59-32.11-78.08h-150.15l-31.74 78.08h-28.63l121.9-293.45h27.86l121.9 293.45zm-171.82-104.11h129.25l-65.01-158.69zm342.46-15.12c0 30.23 7.55 53.74 22.64 70.53s36.05 25.19 62.88 25.19 47.72-8.4 62.69-25.19c14.96-16.79 22.45-40.3 22.45-70.53v-174.64h26.69v174.64c0 38.07-9.86 67.87-29.6 89.42-19.73 21.55-47.14 32.33-82.23 32.33s-62.56-10.78-82.42-32.33c-19.87-21.55-29.8-51.35-29.8-89.42v-174.64h26.7zm114.15-257.34 26.71 12.59-48.77 41.99-23.21-2.94zm355.23 83.12c25.79 0 49.33 6.44 70.61 19.31 21.29 12.88 38.06 30.58 50.32 53.11 12.25 22.53 18.38 47.37 18.38 74.52 0 27.14-6.13 51.91-18.38 74.3-12.26 22.39-29.1 40.02-50.51 52.9-21.41 12.87-45.15 19.31-71.2 19.31h-107.96V1903.3zm.77 267.42c20.38 0 39.09-5.32 56.11-15.95 17.03-10.64 30.5-25.12 40.44-43.45 9.93-18.33 14.89-38.69 14.89-61.08s-5.03-42.82-15.09-61.3c-10.06-18.47-23.67-33.02-40.82-43.66-17.15-10.63-36.05-15.95-56.69-15.95h-81.65v241.39zm281.7-267.42h181.1v26.03h-154.4v104.95h138.15v26.03h-138.15v110.41h159.43v26.03h-186.13zm542.13 0c33.53 0 59.46 8.47 77.78 25.4 18.31 16.93 27.48 40.93 27.48 72 0 32.18-9.17 57.09-27.48 74.72-18.32 17.64-44.25 26.45-77.78 26.45h-73.13v94.88h-26.71V1903.3zm-1.16 172.54c25.8 0 45.73-6.36 59.78-19.1q21.09-19.095 21.09-55.2c0-23.51-6.96-41.42-20.89-53.74-13.93-12.31-33.92-18.47-59.98-18.47h-71.97v146.51zm264.67 1.68c0 30.23 7.55 53.74 22.64 70.53s36.05 25.19 62.88 25.19c26.82 0 47.72-8.4 62.69-25.19q22.44-25.185 22.44-70.53v-174.64h26.7v174.64c0 38.07-9.86 67.87-29.6 89.42-19.73 21.55-47.15 32.33-82.23 32.33-35.09 0-62.56-10.78-82.43-32.33-19.86-21.55-29.8-51.35-29.8-89.42v-174.64h26.71zm114.15-257.34 26.7 12.59-48.76 41.99-23.21-2.94zm359.86 82.7c27.09 0 48.31 6.51 63.66 19.52 15.35 13.02 23.02 31 23.02 53.95 0 17.35-4.45 31.91-13.34 43.66-8.91 11.75-21.35 19.45-37.34 23.09 19.86 2.8 35.34 10.77 46.43 23.93 11.09 13.15 16.63 29.81 16.63 49.96 0 25.18-8.63 44.78-25.92 58.77-17.28 13.99-41.27 20.99-71.98 20.99h-114.54v-293.87zm-1.16 129.72c19.09 0 33.93-4.54 44.5-13.64 10.58-9.1 15.87-22.04 15.87-38.83 0-16.23-5.29-28.83-15.87-37.78-10.57-8.96-25.41-13.3-44.5-13.02h-85.51v103.27zm0 138.12c23.22 0 41.21-4.97 53.99-14.9 12.76-9.94 19.15-23.86 19.15-41.77 0-17.63-6.45-31.35-19.35-41.14q-19.35-14.7-53.79-14.7h-85.51v112.51zm250.35-267.42h26.71v267.42h119.18v26.03h-145.89zm282.86 0h26.7v293.45h-26.7zm392.76 59.62c-10.83-11.48-23.35-20.43-37.54-26.87-14.18-6.44-28.88-9.66-44.11-9.66-20.9 0-40.05 5.46-57.47 16.37-17.41 10.92-31.21 25.82-41.4 44.71-10.19 18.9-15.28 39.54-15.28 61.93s5.09 42.96 15.28 61.71 23.99 33.65 41.4 44.71c17.42 11.05 36.57 16.58 57.47 16.58 14.97 0 29.54-3.15 43.73-9.44 14.18-6.3 26.83-15.05 37.92-26.24l16.25 18.89c-13.41 13.43-28.76 24.07-46.04 31.9-17.29 7.84-34.97 11.76-53.02 11.76-25.54 0-49.01-6.72-70.43-20.15-21.41-13.44-38.37-31.63-50.89-54.58-12.51-22.95-18.77-48-18.77-75.14 0-27.15 6.33-52.06 18.97-74.73s29.73-40.65 51.27-53.95c21.55-13.29 45.09-19.94 70.62-19.94 18.32 0 36 3.71 53.02 11.13 17.03 7.42 31.99 17.7 44.88 30.85zm359.87 233.83-32.12-78.08h-150.14l-31.74 78.08h-28.63l121.89-293.45h27.87l121.9 293.45zm-171.82-104.11h129.25l-65.01-158.69z" fill="#000000" fill-rule="nonzero" data-color="1"></path>
        <path d="M188.04 1903.3h26.7v293.45h-26.7zm392.37 0h26.32v293.45h-28.25l-167.55-248.53v248.53h-26.71V1903.3h28.25l167.94 248.53zm311.11-2.52c25.8 0 49.47 6.65 71.01 19.94 21.55 13.3 38.64 31.28 51.27 53.95 12.65 22.67 18.96 47.58 18.96 74.73 0 27.14-6.31 52.19-18.96 75.14-12.63 22.95-29.72 41.14-51.27 54.58-21.54 13.43-45.21 20.15-71.01 20.15-25.79 0-49.46-6.72-71-20.15-21.55-13.44-38.64-31.63-51.28-54.58s-18.96-48-18.96-75.14q0-40.725 18.96-74.73c12.64-22.67 29.73-40.65 51.28-53.95 21.54-13.29 45.21-19.94 71-19.94m.39 26.03c-20.64 0-39.73 5.46-57.27 16.37-17.54 10.92-31.47 25.75-41.8 44.5-10.31 18.76-15.47 39.33-15.47 61.72s5.16 43.1 15.47 62.13c10.33 19.03 24.26 34.07 41.8 45.13 17.54 11.05 36.63 16.58 57.27 16.58 20.38 0 39.27-5.53 56.69-16.58 17.42-11.06 31.28-26.1 41.6-45.13q15.48-28.545 15.48-62.13c0-22.39-5.16-42.96-15.48-61.72-10.32-18.75-24.18-33.58-41.6-44.5-17.42-10.91-36.31-16.37-56.69-16.37m240.68-23.51h28.63l96.36 261.54 95.97-261.54h28.25l-111.06 293.45h-27.87zM1696 2196.75l-32.12-78.08h-150.14l-31.74 78.08h-28.63l121.9-293.45h27.86l121.9 293.45zm-171.82-104.11h129.25l-65.01-158.69zM1962.22 2219c10.32 1.12 18.12 4.76 23.41 10.91 5.29 6.16 7.94 13.3 7.94 21.42 0 10.63-3.68 19.31-11.04 26.02-7.34 6.72-16.96 10.08-28.82 10.08-5.42 0-11.1-.84-17.03-2.52q-8.895-2.52-15.87-6.72l6.2-18.05c3.35 1.96 7.22 3.57 11.6 4.83q6.585 1.89 12.39 1.89c6.7 0 11.93-1.82 15.67-5.46s5.61-7.84 5.61-12.59q0-6.72-5.61-11.55c-3.74-3.22-8.84-4.83-15.28-4.83h-11.62l9.29-33.58c-23.73-1.96-45.34-9.87-64.82-23.72-19.47-13.85-34.88-31.84-46.24-53.95-11.35-22.11-17.03-46.03-17.03-71.78 0-27.15 6.33-52.06 18.96-74.73 12.65-22.67 29.74-40.65 51.28-53.95 21.55-13.29 45.09-19.94 70.62-19.94 18.32 0 36 3.71 53.02 11.13 17.03 7.42 31.99 17.7 44.88 30.85l-15.86 20.16c-10.83-11.48-23.35-20.43-37.54-26.87-14.18-6.44-28.88-9.66-44.11-9.66-20.9 0-40.05 5.46-57.47 16.37-17.41 10.92-31.21 25.82-41.4 44.71-10.19 18.9-15.29 39.54-15.29 61.93s5.1 42.96 15.29 61.71 23.99 33.65 41.4 44.71c17.42 11.05 36.57 16.58 57.47 16.58 14.97 0 29.54-3.15 43.73-9.44 14.18-6.3 26.83-15.05 37.92-26.24l16.25 18.89c-12.64 12.59-26.95 22.74-42.95 30.43-16 7.7-32.38 11.97-49.15 12.81zm441.52-22.25-32.12-78.08h-150.14l-31.74 78.08h-28.63L2283 1903.3h27.87l121.9 293.45zm-171.82-104.11h129.25l-65.01-158.69zm121.9-262.8c0 13.15-2.51 23.93-7.54 32.32-5.04 8.4-12.59 12.6-22.64 12.6-5.42 0-10.26-1.19-14.51-3.57q-6.39-3.57-14.91-9.87c-5.15-3.92-9.09-6.65-11.8-8.18-2.71-1.54-5.61-2.31-8.71-2.31-4.89 0-8.57 1.96-11.02 5.87-2.45 3.92-3.68 9.38-3.68 16.38h-18.96c0-13.16 2.52-23.93 7.55-32.33 5.02-8.4 12.57-12.59 22.64-12.59q8.115 0 14.7 3.57c4.39 2.37 9.28 5.8 14.7 10.28 5.16 3.92 9.1 6.65 11.81 8.19q4.05 2.31 8.7 2.31c9.81 0 14.7-7.56 14.7-22.67zm316.14 70.94c25.8 0 49.47 6.65 71.01 19.94 21.54 13.3 38.63 31.28 51.27 53.95 12.65 22.67 18.96 47.58 18.96 74.73 0 27.14-6.31 52.19-18.96 75.14-12.64 22.95-29.73 41.14-51.27 54.58-21.54 13.43-45.21 20.15-71.01 20.15-25.79 0-49.47-6.72-71.01-20.15-21.54-13.44-38.63-31.63-51.28-54.58-12.63-22.95-18.96-48-18.96-75.14 0-27.15 6.33-52.06 18.96-74.73 12.65-22.67 29.74-40.65 51.28-53.95 21.54-13.29 45.22-19.94 71.01-19.94m.38 26.03c-20.63 0-39.72 5.46-57.27 16.37-17.54 10.92-31.47 25.75-41.79 44.5-10.31 18.76-15.48 39.33-15.48 61.72s5.17 43.1 15.48 62.13c10.32 19.03 24.25 34.07 41.79 45.13 17.55 11.05 36.64 16.58 57.27 16.58 20.38 0 39.28-5.53 56.69-16.58 17.42-11.06 31.29-26.1 41.6-45.13 10.33-19.03 15.49-39.74 15.49-62.13s-5.16-42.96-15.49-61.72c-10.31-18.75-24.18-33.58-41.6-44.5-17.41-10.91-36.31-16.37-56.69-16.37m592.45 269.94-32.12-78.08h-150.15l-31.73 78.08h-28.63l121.89-293.45h27.87l121.89 293.45zm-171.82-104.11h129.25l-65.01-158.69zm586.25-141.48c-11.1-7.56-23.22-13.36-36.39-17.42q-19.725-6.09-37.14-6.09c-18.58 0-33.47 3.99-44.7 11.97-11.22 7.97-16.83 18.82-16.83 32.53 0 12.04 3.1 21.83 9.29 29.39 6.19 7.55 13.8 13.5 22.83 17.84s21.42 9.17 37.15 14.48c18.32 5.88 33.08 11.69 44.31 17.43 11.22 5.73 20.77 14.06 28.63 24.97 7.87 10.92 11.81 25.33 11.81 43.24 0 15.68-4.07 29.53-12.2 41.57-8.12 12.03-19.54 21.34-34.24 27.91-14.7 6.58-31.61 9.87-50.7 9.87q-28.245 0-55.14-12.18c-17.93-8.11-33.34-18.89-46.24-32.32l12.38-23.93c12.13 12.87 26.18 22.95 42.18 30.23 16 7.27 31.73 10.91 47.21 10.91 20.64 0 37.03-4.55 49.15-13.64 12.12-9.1 18.18-21.34 18.18-36.74 0-12.31-3.09-22.39-9.28-30.22-6.19-7.84-13.81-13.86-22.83-18.05-9.03-4.2-21.67-9.1-37.93-14.7-18.32-6.15-33.02-11.96-44.11-17.42-11.1-5.46-20.51-13.57-28.25-24.35-7.74-10.77-11.61-24.84-11.61-42.19 0-14.83 3.87-27.85 11.61-39.04 7.74-11.2 18.57-19.8 32.5-25.82 13.94-6.02 30.06-9.03 48.38-9.03q22.05 0 44.31 7.14c14.83 4.76 27.93 11.06 39.27 18.89zm169.47-47.86h181.1v26.03h-154.4v104.95h138.15v26.03h-138.15v110.41h159.43v26.03h-186.13zm514.26 293.45-58.43-95.72c-8.26.56-14.57.84-18.96.84h-74.29v94.88h-26.71V1903.3h101c33.79 0 59.92 8.47 78.36 25.4 18.45 16.93 27.67 40.93 27.67 72 0 24.35-5.42 44.64-16.25 60.87-10.84 16.23-26.31 27.57-46.44 34.01l65.02 101.17zm-77.39-120.91c25.8 0 45.67-6.36 59.59-19.1 13.93-12.73 20.9-31.13 20.9-55.2 0-23.51-6.97-41.42-20.9-53.74-13.92-12.31-33.79-18.47-59.59-18.47h-74.29v146.51zm219.78-172.54h28.63l96.36 261.54 95.97-261.54h28.25l-111.06 293.45h-27.87zm378.82 0h26.71v293.45h-26.71zm311.11 315.7c10.32 1.12 18.12 4.76 23.41 10.91 5.29 6.16 7.94 13.3 7.94 21.42 0 10.63-3.68 19.31-11.03 26.02q-11.025 10.08-28.83 10.08c-5.42 0-11.1-.84-17.02-2.52-5.94-1.68-11.23-3.92-15.88-6.72l6.2-18.05c3.35 1.96 7.23 3.57 11.6 4.83q6.585 1.89 12.39 1.89c6.7 0 11.93-1.82 15.67-5.46s5.62-7.84 5.62-12.59c0-4.48-1.88-8.33-5.62-11.55s-8.84-4.83-15.28-4.83h-11.62l9.3-33.58c-23.74-1.96-45.35-9.87-64.82-23.72-19.48-13.85-34.89-31.84-46.25-53.95-11.35-22.11-17.02-46.03-17.02-71.78q0-40.725 18.96-74.73c12.64-22.67 29.73-40.65 51.28-53.95 21.54-13.29 45.08-19.94 70.61-19.94 18.32 0 36 3.71 53.02 11.13 17.03 7.42 31.99 17.7 44.88 30.85l-15.86 20.16c-10.83-11.48-23.35-20.43-37.53-26.87-14.19-6.44-28.89-9.66-44.12-9.66-20.9 0-40.05 5.46-57.46 16.37-17.42 10.92-31.21 25.82-41.41 44.71-10.19 18.9-15.28 39.54-15.28 61.93s5.09 42.96 15.28 61.71c10.2 18.75 23.99 33.65 41.41 44.71 17.41 11.05 36.56 16.58 57.46 16.58 14.97 0 29.54-3.15 43.73-9.44 14.19-6.3 26.83-15.05 37.92-26.24l16.25 18.89c-12.64 12.59-26.95 22.74-42.94 30.43-16.01 7.7-32.39 11.97-49.15 12.81zm348.64-318.22c25.8 0 49.47 6.65 71.02 19.94 21.54 13.3 38.63 31.28 51.27 53.95q18.96 34.005 18.96 74.73c0 27.14-6.32 52.19-18.96 75.14s-29.73 41.14-51.27 54.58c-21.55 13.43-45.22 20.15-71.02 20.15-25.79 0-49.46-6.72-71-20.15-21.54-13.44-38.63-31.63-51.28-54.58-12.64-22.95-18.96-48-18.96-75.14q0-40.725 18.96-74.73c12.65-22.67 29.74-40.65 51.28-53.95 21.54-13.29 45.21-19.94 71-19.94m.39 26.03c-20.64 0-39.73 5.46-57.27 16.37-17.54 10.92-31.47 25.75-41.79 44.5-10.32 18.76-15.48 39.33-15.48 61.72q0 33.585 15.48 62.13c10.32 19.03 24.25 34.07 41.79 45.13 17.54 11.05 36.63 16.58 57.27 16.58 20.38 0 39.28-5.53 56.69-16.58 17.42-11.06 31.28-26.1 41.6-45.13s15.49-39.74 15.49-62.13-5.17-42.96-15.49-61.72c-10.32-18.75-24.18-33.58-41.6-44.5-17.41-10.91-36.31-16.37-56.69-16.37m499.19-23.51c25.79 0 49.33 6.44 70.61 19.31 21.29 12.88 38.06 30.58 50.32 53.11 12.25 22.53 18.38 47.37 18.38 74.52 0 27.14-6.13 51.91-18.38 74.3-12.26 22.39-29.1 40.02-50.51 52.9-21.41 12.87-45.15 19.31-71.2 19.31h-107.96V1903.3zm.77 267.42c20.38 0 39.09-5.32 56.11-15.95 17.03-10.64 30.5-25.12 40.44-43.45 9.93-18.33 14.89-38.69 14.89-61.08s-5.03-42.82-15.08-61.3c-10.07-18.47-23.68-33.02-40.83-43.66-17.15-10.63-36.05-15.95-56.69-15.95h-81.65v241.39zm477.11 26.03-32.11-78.08h-150.15l-31.74 78.08h-28.63l121.9-293.45h27.86l121.9 293.45zm-171.82-104.11h129.26l-65.02-158.69zm586.25-141.48c-11.1-7.56-23.22-13.36-36.38-17.42-13.15-4.06-25.53-6.09-37.15-6.09-18.57 0-33.47 3.99-44.69 11.97-11.22 7.97-16.84 18.82-16.84 32.53 0 12.04 3.1 21.83 9.3 29.39 6.18 7.55 13.8 13.5 22.83 17.84 9.02 4.34 21.41 9.17 37.15 14.48q27.465 8.82 44.31 17.43c11.21 5.73 20.76 14.06 28.63 24.97 7.87 10.92 11.8 25.33 11.8 43.24 0 15.68-4.06 29.53-12.19 41.57-8.12 12.03-19.54 21.34-34.25 27.91-14.7 6.58-31.6 9.87-50.69 9.87q-28.245 0-55.14-12.18c-17.93-8.11-33.34-18.89-46.25-32.32l12.39-23.93c12.12 12.87 26.18 22.95 42.18 30.23 15.99 7.27 31.73 10.91 47.2 10.91 20.64 0 37.03-4.55 49.15-13.64 12.12-9.1 18.19-21.34 18.19-36.74 0-12.31-3.1-22.39-9.28-30.22-6.2-7.84-13.81-13.86-22.83-18.05-9.04-4.2-21.68-9.1-37.94-14.7-18.31-6.15-33.01-11.96-44.1-17.42-11.1-5.46-20.51-13.57-28.25-24.35-7.75-10.77-11.61-24.84-11.61-42.19 0-14.83 3.86-27.85 11.61-39.04 7.74-11.2 18.57-19.8 32.5-25.82s30.06-9.03 48.37-9.03c14.7 0 29.48 2.38 44.31 7.14s27.93 11.06 39.28 18.89zm368.38 245.59-32.11-78.08h-150.15l-31.74 78.08h-28.63l121.9-293.45h27.86l121.9 293.45zm-171.82-104.11h129.25l-65.01-158.69zm342.46-15.12c0 30.23 7.55 53.74 22.64 70.53s36.05 25.19 62.88 25.19 47.72-8.4 62.69-25.19c14.96-16.79 22.45-40.3 22.45-70.53v-174.64h26.69v174.64c0 38.07-9.86 67.87-29.6 89.42-19.73 21.55-47.14 32.33-82.23 32.33s-62.56-10.78-82.42-32.33c-19.87-21.55-29.8-51.35-29.8-89.42v-174.64h26.7zm114.15-257.34 26.71 12.59-48.77 41.99-23.21-2.94zm355.23 83.12c25.79 0 49.33 6.44 70.61 19.31 21.29 12.88 38.06 30.58 50.32 53.11 12.25 22.53 18.38 47.37 18.38 74.52 0 27.14-6.13 51.91-18.38 74.3-12.26 22.39-29.1 40.02-50.51 52.9-21.41 12.87-45.15 19.31-71.2 19.31h-107.96V1903.3zm.77 267.42c20.38 0 39.09-5.32 56.11-15.95 17.03-10.64 30.5-25.12 40.44-43.45 9.93-18.33 14.89-38.69 14.89-61.08s-5.03-42.82-15.09-61.3c-10.06-18.47-23.67-33.02-40.82-43.66-17.15-10.63-36.05-15.95-56.69-15.95h-81.65v241.39zm281.7-267.42h181.1v26.03h-154.4v104.95h138.15v26.03h-138.15v110.41h159.43v26.03h-186.13zm542.13 0c33.53 0 59.46 8.47 77.78 25.4 18.31 16.93 27.48 40.93 27.48 72 0 32.18-9.17 57.09-27.48 74.72-18.32 17.64-44.25 26.45-77.78 26.45h-73.13v94.88h-26.71V1903.3zm-1.16 172.54c25.8 0 45.73-6.36 59.78-19.1q21.09-19.095 21.09-55.2c0-23.51-6.96-41.42-20.89-53.74-13.93-12.31-33.92-18.47-59.98-18.47h-71.97v146.51zm264.67 1.68c0 30.23 7.55 53.74 22.64 70.53s36.05 25.19 62.88 25.19c26.82 0 47.72-8.4 62.69-25.19q22.44-25.185 22.44-70.53v-174.64h26.7v174.64c0 38.07-9.86 67.87-29.6 89.42-19.73 21.55-47.15 32.33-82.23 32.33-35.09 0-62.56-10.78-82.43-32.33-19.86-21.55-29.8-51.35-29.8-89.42v-174.64h26.71zm114.15-257.34 26.7 12.59-48.76 41.99-23.21-2.94zm359.86 82.7c27.09 0 48.31 6.51 63.66 19.52 15.35 13.02 23.02 31 23.02 53.95 0 17.35-4.45 31.91-13.34 43.66-8.91 11.75-21.35 19.45-37.34 23.09 19.86 2.8 35.34 10.77 46.43 23.93 11.09 13.15 16.63 29.81 16.63 49.96 0 25.18-8.63 44.78-25.92 58.77-17.28 13.99-41.27 20.99-71.98 20.99h-114.54v-293.87zm-1.16 129.72c19.09 0 33.93-4.54 44.5-13.64 10.58-9.1 15.87-22.04 15.87-38.83 0-16.23-5.29-28.83-15.87-37.78-10.57-8.96-25.41-13.3-44.5-13.02h-85.51v103.27zm0 138.12c23.22 0 41.21-4.97 53.99-14.9 12.76-9.94 19.15-23.86 19.15-41.77 0-17.63-6.45-31.35-19.35-41.14q-19.35-14.7-53.79-14.7h-85.51v112.51zm250.35-267.42h26.71v267.42h119.18v26.03h-145.89zm282.86 0h26.7v293.45h-26.7zm392.76 59.62c-10.83-11.48-23.35-20.43-37.54-26.87-14.18-6.44-28.88-9.66-44.11-9.66-20.9 0-40.05 5.46-57.47 16.37-17.41 10.92-31.21 25.82-41.4 44.71-10.19 18.9-15.28 39.54-15.28 61.93s5.09 42.96 15.28 61.71 23.99 33.65 41.4 44.71c17.42 11.05 36.57 16.58 57.47 16.58 14.97 0 29.54-3.15 43.73-9.44 14.18-6.3 26.83-15.05 37.92-26.24l16.25 18.89c-13.41 13.43-28.76 24.07-46.04 31.9-17.29 7.84-34.97 11.76-53.02 11.76-25.54 0-49.01-6.72-70.43-20.15-21.41-13.44-38.37-31.63-50.89-54.58-12.51-22.95-18.77-48-18.77-75.14 0-27.15 6.33-52.06 18.97-74.73s29.73-40.65 51.27-53.95c21.55-13.29 45.09-19.94 70.62-19.94 18.32 0 36 3.71 53.02 11.13 17.03 7.42 31.99 17.7 44.88 30.85zm359.87 233.83-32.12-78.08h-150.14l-31.74 78.08h-28.63l121.89-293.45h27.87l121.9 293.45zm-171.82-104.11h129.25l-65.01-158.69z" fill="#000000" fill-rule="nonzero" data-color="1"></path>
        <path d="M1822.78 1126.55c-43.97 0-79.67-35.23-79.67-78.7V7.66h-270.29v994.02c0 215.77 176.85 390.64 395.05 390.64h803.1v-1.68c-84.72-64.18-146.17-157.72-169.31-264.16l-678.88-.02z" fill="#005e94" data-color="2"></path>
        <path d="M1822.78 1126.55c-43.97 0-79.67-35.23-79.67-78.7V7.66h-270.29v994.02c0 215.77 176.85 390.64 395.05 390.64h803.1v-1.68c-84.72-64.18-146.17-157.72-169.31-264.16l-678.88-.02z" fill="#005e94" data-color="2"></path>
        <path d="M4592.52 282.84h804.13l90.08-275.79H4449.52c-218.23 0-395.07 174.86-395.07 390.61v44.43c0 43.8 7.31 85.96 20.74 125.25 52.83 154.36 200.49 265.45 374.37 265.45l443.46.28v-.02h137.41c74.24 0 135.42 58.35 138.8 130.97.28 6.11.12 11.04-.47 17.41-6.58 69.59-66.28 124.6-138.33 124.6h-975.68v287.17h1002.58c218.18 0 395.05-174.89 395.05-390.63v-44.44c0-92.3-32.38-177.07-86.53-243.99-72.42-89.4-183.68-146.73-308.52-146.73l-431.25-.26H4483c-75.03 0-137.22-57.26-144.11-129.76-.59-6.65-.76-11.76-.47-18.13 3.52-75.64 67.24-136.42 144.58-136.42z" fill="#005e94" data-color="2"></path>
        <path d="M4592.52 282.84h804.13l90.08-275.79H4449.52c-218.23 0-395.07 174.86-395.07 390.61v44.43c0 43.8 7.31 85.96 20.74 125.25 52.83 154.36 200.49 265.45 374.37 265.45l443.46.28v-.02h137.41c74.24 0 135.42 58.35 138.8 130.97.28 6.11.12 11.04-.47 17.41-6.58 69.59-66.28 124.6-138.33 124.6h-975.68v287.17h1002.58c218.18 0 395.05-174.89 395.05-390.63v-44.44c0-92.3-32.38-177.07-86.53-243.99-72.42-89.4-183.68-146.73-308.52-146.73l-431.25-.26H4483c-75.03 0-137.22-57.26-144.11-129.76-.59-6.65-.76-11.76-.47-18.13 3.52-75.64 67.24-136.42 144.58-136.42z" fill="#005e94" data-color="2"></path>
        <path d="M987.74 8.14H395.11C176.91 8.14-.01 183.08-.01 398.84v595.77c0 215.75 176.85 397.24 395.02 397.24h592.66c218.2 0 395.06-181.49 395.06-397.24l-.02-595.77c.07-215.76-176.77-390.7-394.97-390.7m-87.33 268.73H479.36c-117.95 0-214.44 95.44-214.44 212.07v416.37c0 116.62 96.49 212.02 214.44 212.02h421.05c117.94 0 214.46-95.4 214.46-212.02V488.94c0-116.63-96.52-212.07-214.46-212.07" fill="#005e94" data-color="2"></path>
        <path d="M987.74 8.14H395.11C176.91 8.14-.01 183.08-.01 398.84v595.77c0 215.75 176.85 397.24 395.02 397.24h592.66c218.2 0 395.06-181.49 395.06-397.24l-.02-595.77c.07-215.76-176.77-390.7-394.97-390.7m-87.33 268.73H479.36c-117.95 0-214.44 95.44-214.44 212.07v416.37c0 116.62 96.49 212.02 214.44 212.02h421.05c117.94 0 214.46-95.4 214.46-212.02V488.94c0-116.63-96.52-212.07-214.46-212.07" fill="#005e94" data-color="2"></path>
        <path d="M3569.35 8.14h-592.63c-218.2 0-395.12 174.94-395.12 390.7v595.77c0 215.75 176.85 397.24 395.03 397.24h592.65c218.2 0 395.06-181.49 395.06-397.24l-.02-595.77c.07-215.76-176.77-390.7-394.97-390.7m-87.33 268.73h-421.05c-117.95 0-214.44 95.44-214.44 212.07v416.37c0 116.62 96.49 212.02 214.44 212.02h421.05c117.94 0 214.46-95.4 214.46-212.02V488.94c0-116.63-96.52-212.07-214.46-212.07" fill="#005e94" data-color="2"></path>
        <path d="M3569.35 8.14h-592.63c-218.2 0-395.12 174.94-395.12 390.7v595.77c0 215.75 176.85 397.24 395.03 397.24h592.65c218.2 0 395.06-181.49 395.06-397.24l-.02-595.77c.07-215.76-176.77-390.7-394.97-390.7m-87.33 268.73h-421.05c-117.95 0-214.44 95.44-214.44 212.07v416.37c0 116.62 96.49 212.02 214.44 212.02h421.05c117.94 0 214.46-95.4 214.46-212.02V488.94c0-116.63-96.52-212.07-214.46-212.07" fill="#005e94" data-color="2"></path>
        <path d="M4600.85 1392.31h-738.43v-1.8c91.22-69.13 157.41-169.83 182.32-284.47h556.11z" fill="#005e94" data-color="2"></path>
        <path d="M4600.85 1392.31h-738.43v-1.8c91.22-69.13 157.41-169.83 182.32-284.47h556.11z" fill="#005e94" data-color="2"></path>
        <path d="M6466.27 7.05h-889.46l-90.08 275.79h525.57v1110.17h279.03V282.84h442.07c5.18-102.44 81.08-217.04 164.2-274.33z" fill="#005e94" data-color="2"></path>
        <path d="M6466.27 7.05h-889.46l-90.08 275.79h525.57v1110.17h279.03V282.84h442.07c5.18-102.44 81.08-217.04 164.2-274.33z" fill="#005e94" data-color="2"></path>
        <path d="M7084.36 897.12v-60.17s584.92-1 840.34-3.07v-267.7c-255.49-2.07-840.34-3.1-840.34-3.1v-72.51h.05c2.37-114.65 97.93-207.73 214.39-207.73h747.37L8155.98 7.05H7212.6c-218.2 0-395.04 174.86-395.04 390.61v604.74c0 215.77 176.84 390.63 395.04 390.63l892.02-.02-141.66-275.82H7298.8c-117.92 0-214.44-95.44-214.44-212.07z" fill="#005e94" data-color="2"></path>
        <path d="M7084.36 897.12v-60.17s584.92-1 840.34-3.07v-267.7c-255.49-2.07-840.34-3.1-840.34-3.1v-72.51h.05c2.37-114.65 97.93-207.73 214.39-207.73h747.37L8155.98 7.05H7212.6c-218.2 0-395.04 174.86-395.04 390.61v604.74c0 215.77 176.84 390.63 395.04 390.63l892.02-.02-141.66-275.82H7298.8c-117.92 0-214.44-95.44-214.44-212.07z" fill="#005e94" data-color="2"></path>
        <path fill="#005e94" d="M7739.14 1116.72h307.03l109.8 275.81h-416.83z" data-color="2"></path>
        <path fill="#005e94" d="M7739.14 1116.72h307.03l109.8 275.81h-416.83z" data-color="2"></path>
        <path fill="#005e94" d="M10727.7 7.02v555.04h-826.02V7.02h-279.03v1386.01h279.03V837.91h826.02v555.12h278.96V7.02z" data-color="2"></path>
        <path fill="#005e94" d="M10727.7 7.02v555.04h-826.02V7.02h-279.03v1386.01h279.03V837.91h826.02v555.12h278.96V7.02z" data-color="2"></path>
        <path d="M8450.09 897.12V490.57h.05c2.38-114.65 97.93-207.73 214.4-207.73h805.82V7.05h-892.02c-218.21 0-395.05 174.86-395.05 390.61v604.74c0 215.77 176.84 390.63 395.05 390.63l892.02-.02v-275.82h-805.82c-112.82 0-206.07-87.38-213.9-197.09h-.55z" fill="#005e94" data-color="2"></path>
        <path d="M8450.09 897.12V490.57h.05c2.38-114.65 97.93-207.73 214.4-207.73h805.82V7.05h-892.02c-218.21 0-395.05 174.86-395.05 390.61v604.74c0 215.77 176.84 390.63 395.05 390.63l892.02-.02v-275.82h-805.82c-112.82 0-206.07-87.38-213.9-197.09h-.55z" fill="#005e94" data-color="2"></path>
    </g>
</svg>